
<svg xmlns="http://www.w3.org/2000/svg" xmlns:xlink="http://www.w3.org/1999/xlink" width="168.83" height="50"><defs><path d="M6.22 50C2.79 50 0 47.21 0 43.78V6.22C0 2.79 2.79 0 6.22 0h156.39c3.43 0 6.22 2.79 6.22 6.22v37.56c0 3.43-2.79 6.22-6.22 6.22H6.22z" id="a"/><path d="M6.22 0C2.79 0 0 2.79 0 6.22v37.56C0 47.21 2.79 50 6.22 50h156.39c3.43 0 6.22-2.79 6.22-6.22V6.22c0-3.43-2.79-6.22-6.22-6.22H6.22zm161.62 6.22v37.56c0 2.89-2.34 5.23-5.23 5.23H6.22c-2.89 0-5.23-2.34-5.23-5.23V6.22C.99 3.33 3.33.99 6.22.99h156.39c3.49 1.56 5.23 3.3 5.23 5.23z" id="b"/><path d="M136.13 37.57V21.89h-2.35v15.68h2.35zm15.94-3.25h-.09l-2.79-6.75h-2.52l4.14 9.46-2.34 5.31h2.43l6.4-14.77h-2.61l-2.62 6.75zm-12.34.09c0-1.17 1.35-1.71 2.43-1.71.99 0 1.53.18 2.17.54-.18 1.44-1.45 2.44-2.8 2.44-.81.09-1.8-.27-1.8-1.27zm-2.07-4.77c.21.09 1.86.81 2.07.9.45-.9 1.26-1.17 2.16-1.17 1.17 0 2.44.72 2.44 1.98v.18c-.46-.27-1.36-.63-2.44-.63-2.25 0-4.5 1.26-4.5 3.51 0 2.08 1.8 3.43 3.87 3.43 1.53 0 2.43-.72 2.98-1.53h.09v1.17h2.25v-6.04c0-2.79-2.07-4.32-4.78-4.32-1.71.09-3.42.81-4.14 2.52zm-13.61-.18v-5.41h3.34c1.71 0 2.7 1.45 2.7 2.71 0 1.17-.99 2.7-2.7 2.7h-3.34zm-2.34-7.57v15.68h2.34v-5.95h3.25c2.61 0 5.13-1.89 5.13-4.86 0-2.98-2.52-4.87-5.13-4.87h-5.59zM93.78 32.52c0-1.89 1.36-3.24 2.98-3.24 1.62 0 2.88 1.35 2.88 3.24 0 1.89-1.26 3.25-2.88 3.25-1.62 0-2.98-1.36-2.98-3.25zm5.68-4.14h-.09c-.54-.63-1.53-1.17-2.79-1.17-2.71 0-5.14 2.34-5.14 5.31 0 2.98 2.43 5.32 5.14 5.32 1.26 0 2.25-.54 2.79-1.17h.09v.81c0 2.07-1.08 3.15-2.88 3.15-1.44 0-2.35-.99-2.71-1.89-.2.08-1.86.73-2.07.81a5 5 0 004.69 3.15c2.7 0 5.04-1.62 5.04-5.58v-9.55h-2.25v.9l.18-.09zm6.22 9.1V21.8h-2.35v15.68h2.35zm6.21-8.2c.9 0 1.71.45 1.98 1.17-.31.13-1.91.79-4.77 1.98 1.08-2.1 2.01-3.15 2.79-3.15zm4.51 1.26c-.45-1.17-1.8-3.42-4.6-3.42-2.7 0-5.04 2.16-5.04 5.31 0 2.98 2.25 5.32 5.31 5.32 2.44 0 3.88-1.53 4.42-2.34-.18-.12-1.62-1.06-1.8-1.18-.64.91-1.45 1.45-2.62 1.45-1.17 0-2.07-.54-2.61-1.63.47-.19 2.85-1.19 7.12-2.97l-.27-.63.09.09zm-56.67-1.71v2.25h5.41c-.18 1.26-.54 2.16-1.27 2.88-.81.81-1.98 1.63-4.14 1.63-3.33 0-5.95-2.71-5.95-6.04s2.62-6.04 5.95-6.04c1.8 0 3.06.72 4.05 1.63l1.63-1.63c-1.36-1.26-3.16-2.25-5.68-2.25-4.59 0-8.38 3.69-8.38 8.29 0 4.59 3.88 8.29 8.38 8.29 2.43 0 4.32-.81 5.77-2.34 1.53-1.54 1.98-3.61 1.98-5.32 0-.54 0-.99-.09-1.44h-7.57l-.09.09zm10.9 3.69c0-1.89 1.35-3.24 2.97-3.24 1.63 0 2.98 1.35 2.98 3.24 0 1.89-1.35 3.25-2.98 3.25-1.62 0-2.97-1.36-2.97-3.25zm-2.34 0c0 3.07 2.43 5.32 5.31 5.32 2.98 0 5.32-2.25 5.32-5.32 0-3.06-2.43-5.31-5.32-5.31-2.97 0-5.31 2.25-5.31 5.31zm13.96 0c0-1.89 1.35-3.24 2.98-3.24 1.62 0 2.97 1.35 2.97 3.24 0 1.89-1.35 3.25-2.97 3.25-1.63 0-2.98-1.36-2.98-3.25zm-2.34 0c0 3.07 2.43 5.32 5.32 5.32 2.97 0 5.31-2.25 5.31-5.32 0-3.06-2.43-5.31-5.31-5.31-2.98 0-5.32 2.25-5.32 5.31z" id="c"/><path d="M13.06 40.45c-.36-.36-.54-.99-.54-1.71v-27.3c0-.81.27-1.44.63-1.89 1.04 1.03 6.2 6.2 15.5 15.5l-15.5 15.49-.09-.09zm-.54-1.8zm0 .18v-.18.18zm0-27.75v.18-.18zm0 0zm0 0zm0 0zm0-.18z" id="d"/><path d="M33.78 30.36l.09-.09c3.68-2.11 5.72-3.28 6.13-3.51.54-.36.99-.72 1.17-1.17-.18.45-.54.81-1.17 1.17-.41.23-2.45 1.4-6.13 3.51l-.09.09zm-5.13-5.31l5.13-5.14c3.73 2.11 5.81 3.28 6.22 3.51.81.45 1.26.99 1.35 1.63-.09.63-.54 1.17-1.35 1.62-.41.23-2.49 1.4-6.22 3.51l-5.13-5.13z" id="f"/><path d="M14.23 41.08h-.18s-.09 0-.09-.09c-.09-.09-.18-.09-.27-.18.09.09.18.18.27.18 0 0 .09 0 .09.09h.18zm0 0zm-1.08-.63l15.5-15.5 5.13 5.14c-10.91 6.22-16.98 9.67-18.19 10.36-.54.27-1 .45-1.45.45-.36 0-.72-.18-.99-.45zm-.09.09l.09.09a.361.361 0 00-.09-.09z" id="h"/><path d="M28.65 25.05c-9.3-9.3-14.46-14.47-15.5-15.5.27-.27.63-.45 1.08-.45.45 0 .91.18 1.45.45 1.21.69 7.28 4.14 18.19 10.36l-5.13 5.14h-.09zM15.68 9.37c-.54-.27-1-.45-1.45-.45.45 0 .91.09 1.45.45zm-1.45-.45z" id="j"/><path d="M15.59 40.63c1.21-.69 7.28-4.14 18.19-10.36-10.91 6.22-16.98 9.67-18.19 10.36-.45.27-.91.36-1.27.45.36 0 .82-.18 1.27-.45zm-2.53.09zm-.09-.09z" id="l"/><path d="M33.78 30.36l.18-.09-.18.09z" id="m"/><path d="M13.15 40.63l-.09-.09.09-.09c.27.27.63.45 1.08.45.45 0 .91-.09 1.45-.45 1.21-.69 7.28-4.14 18.19-10.36l.09.09-.09.09c-10.91 6.22-16.98 9.67-18.19 10.36-.45.27-.91.36-1.27.45h-.09c-.54 0-.9-.18-1.17-.45z" id="o"/><path d="M12.52 38.83c0 .81.18 1.35.54 1.8-.36-.66-.54-1.26-.54-1.8z" id="q"/><path d="M13.06 40.63c-.36-.36-.54-.99-.54-1.8v-.18c0 .81.18 1.35.54 1.8l.09.09-.09.09z" id="r"/><path d="M13.06 40.63l.09-.09-.09.09z" id="t"/><path d="M41.35 25.05c0 .18-.09.45-.18.63.09-.18.18-.45.18-.63z" id="v"/><path d="M33.96 30.27l-.09-.09c3.73-2.11 5.81-3.28 6.22-3.51.81-.45 1.26-.99 1.35-1.62 0 .18-.09.45-.18.63-.18.45-.54.81-1.17 1.17-.41.23-2.45 1.4-6.13 3.51v-.09z" id="w"/><path d="M41.35 25.05c0-.64-.45-1.36-1.35-1.81-.41-.23-2.45-1.4-6.13-3.51 3.68 2.11 5.72 3.28 6.13 3.51.9.54 1.35 1.17 1.35 1.81z" id="y"/><path d="M40 23.42c-.41-.23-2.49-1.4-6.22-3.51l.09-.09c3.68 2.11 5.72 3.28 6.13 3.51.9.54 1.35 1.17 1.35 1.81-.09-.73-.54-1.27-1.35-1.72z" id="z"/><path d="M12.43 11.17zm0-.18zm0 0zm1.8-2.07c-.45 0-.81.18-1.08.45l-.09.09c-.36.36-.54.9-.54 1.53 0-1.26.72-2.07 1.71-2.07z" id="B"/><path d="M12.43 11.17v-.18c0-.63.27-1.17.54-1.53l.09.09c-.45.36-.63.99-.63 1.89v-.27zm.54-1.8zm.09-.09z" id="C"/><path d="M14.23 8.92z" id="E"/><path d="M15.59 9.46c-.54-.27-1-.45-1.45-.45-.45 0-.81.18-1.08.45 0-.01-.03-.04-.09-.09l.09-.09c.27-.27.63-.36 1.08-.45.45 0 .91.18 1.45.45 1.21.69 7.31 4.14 18.28 10.36l-.09.09C22.87 13.57 16.8 10.15 15.59 9.46z" id="F"/><path d="M54.05 15.32c.91 0 1.54-.27 2.08-.73.54-.54.72-1.17.72-2.07 0-.9-.27-1.62-.72-2.07-.54-.54-1.17-.72-2.08-.72H52.7v5.68c.81-.06 1.26-.09 1.35-.09zm-2.34-6.58h2.25c1.18 0 2.08.36 2.8 1.08.72.72 1.08 1.62 1.08 2.7s-.36 1.98-1.08 2.71c-.72.72-1.62 1.08-2.8 1.08h-2.25V8.74z" id="H"/><path d="M52.7 15.41h1.35c.91 0 1.63-.27 2.17-.82.54-.54.81-1.26.81-2.16 0-.9-.27-1.62-.81-2.16s-1.26-.81-2.17-.81h-1.44v5.95h.09v-.09h.09v-5.5h1.17c.82 0 1.54.27 1.99.72.45.45.72 1.17.72 1.98 0 .9-.27 1.53-.72 1.98-.45.45-1.17.73-1.99.73h-1.35v.09h.09-.09l.09.09zm-.99.81h.09V8.83h2.16c1.18 0 1.99.36 2.71.99.63.63.99 1.53.99 2.61 0 1.08-.36 1.98-.99 2.62-.63.63-1.53.99-2.71.99h-2.25v.09h.09-.09v.09h2.25c1.18 0 2.17-.36 2.89-1.08.72-.73 1.08-1.63 1.08-2.8s-.36-2.07-1.08-2.79c-.72-.72-1.71-1.08-2.89-1.08h-2.43v7.75h.09v-.09l.09.09z" id="I"/><path d="M60.09 16.22V8.74h-.9v7.48h.9z" id="J"/><path d="M59.28 16.22v-7.3H60v7.21h-.81v.09h.09-.09v.18h1.08V8.65h-1.26v7.75h.18v-.18h.09z" id="K"/><path d="M63.96 16.4c-.54 0-1.08-.18-1.62-.54-.54-.36-.9-.91-.99-1.54.09-.03.81-.32.9-.36.09.45.36.72.63 1.09.36.27.72.45 1.08.45.45 0 .82-.09 1.09-.36.27-.19.45-.55.45-.91 0-.45-.18-.72-.45-.99s-.82-.45-1.45-.63-1.17-.45-1.53-.81c-.36-.36-.54-.72-.54-1.26s.18-.99.63-1.44c.45-.36.99-.63 1.71-.63.63 0 1.18.18 1.54.45.36.36.63.63.81 1.08-.09.04-.81.32-.9.36-.09-.27-.18-.45-.45-.63s-.55-.27-1-.27c-.36 0-.72.09-.99.27-.27.18-.36.45-.36.81 0 .27.09.54.36.72.27.18.63.36 1.08.54.36.09.73.27.91.36.27.09.54.27.72.45.27.18.45.45.54.72.09.27.18.63.18.99s-.09.73-.18 1c-.18.27-.36.54-.63.72-.27.18-.54.27-.81.36-.28.09-.55.09-.91.09.04-.02.15-.08.18-.09z" id="L"/><path d="M63.96 16.4v-.09c-.54 0-.99-.18-1.53-.54-.54-.36-.81-.82-.99-1.45h-.09l.09.09.9-.36-.09-.09h-.09c.09.45.36.81.72 1.09.36.27.72.45 1.17.45.45 0 .82-.09 1.18-.36.36-.28.54-.64.45-1 0-.45-.18-.81-.45-1.08-.36-.27-.82-.45-1.45-.63s-1.17-.45-1.44-.81c-.36-.27-.45-.72-.45-1.17 0-.54.18-.9.63-1.35.36-.36.9-.54 1.62-.54.64 0 1.09.18 1.45.45.36.27.63.63.72.99h.09l-.09-.09-.9.36.09.09h.09a1.4 1.4 0 00-.54-.72c-.27-.18-.64-.36-1.09-.36-.36 0-.72.09-.99.36-.27.18-.45.54-.45.9s.18.63.45.81c.27.18.63.36 1.08.54.36.09.64.27.91.36.27.09.45.27.72.45.27.18.45.36.54.63.09.27.18.54.18.9s-.09.63-.18.91c-.18.27-.36.45-.54.63-.27.18-.45.27-.81.36-.27.09-.55.09-.82.09v.27c.27 0 .64-.09.91-.18s.54-.18.81-.36.45-.45.63-.72c.18-.28.27-.64.27-1s-.09-.72-.18-.99c-.18-.27-.36-.54-.63-.72-.27-.18-.54-.36-.81-.45-.27-.09-.55-.27-.91-.36-.45-.18-.81-.36-.99-.54a.817.817 0 01-.27-.63c0-.27.09-.45.36-.63s.54-.27.9-.27.64.09.91.27c.27.18.36.36.45.63v.18l.99-.45h.09v-.09c-.09-.45-.36-.81-.81-1.08-.45-.36-.99-.54-1.63-.54-.72 0-1.26.18-1.71.63-.45.45-.72.9-.72 1.53 0 .54.18.99.54 1.35.36.36.9.63 1.53.81.63.18 1.09.36 1.36.63.27.18.36.45.36.9 0 .36-.09.64-.36.82-.27.18-.64.27-1 .27s-.72-.09-.99-.36c-.27-.28-.54-.64-.63-1v-.18l-.99.45h-.09v.09c.18.64.54 1.18 1.08 1.54.54.36 1.08.54 1.71.54v-.09l-.27-.09z" id="M"/><path d="M70.45 12.25c.45 0 .72-.18.99-.45s.36-.54.36-.9-.09-.63-.36-.9-.54-.45-.99-.45h-1.62v2.61c.97.06 1.51.09 1.62.09zm-1.62 3.97h-.99V8.74h2.52c.63 0 1.17.18 1.62.63.45.45.72.99.72 1.62 0 .63-.27 1.17-.72 1.62-.45.45-.99.63-1.62.63h-1.62v3.07l.09-.09z" id="N"/><path d="M68.83 12.34h1.62c.45 0 .81-.18 1.08-.45s.36-.63.36-.99-.18-.72-.36-.99a1.49 1.49 0 00-1.08-.45h-1.71v2.88h.09v-.09h.09V9.73h1.53c.36 0 .63.09.9.36s.36.54.36.81-.09.54-.36.81c-.18.27-.54.36-.9.36h-1.62v.09h.09-.09v.18zm0 3.88v-.09h-.81v-7.3h2.43c.63 0 1.08.18 1.53.63.45.36.63.9.63 1.53s-.18 1.08-.63 1.53c-.45.36-.99.63-1.53.63h-1.71v3.16h.09v-.09.09h.09v-2.89h1.44c.63 0 1.26-.18 1.71-.63.45-.45.72-.99.72-1.71 0-.63-.27-1.26-.72-1.71-.45-.45-1.08-.63-1.71-.63h-2.7v7.75h1.17v-.09h-.09l.09-.18z" id="O"/><path d="M77.39 15.5c.81 0 1.44-.27 2.07-.82.54-.54.81-1.26.81-2.16 0-.9-.27-1.62-.81-2.16s-1.26-.81-2.07-.81c-.81 0-1.44.27-2.07.81-.54.54-.81 1.26-.81 2.16 0 .9.27 1.62.81 2.16.54.55 1.26.82 2.07.82zm-.09.99c-1.08 0-1.98-.36-2.79-1.17-.73-.73-1.09-1.72-1.09-2.8 0-1.08.36-1.98 1.09-2.79.72-.72 1.62-1.17 2.79-1.17 1.08 0 1.98.36 2.79 1.17.72.72 1.08 1.71 1.08 2.79s-.36 1.98-1.08 2.8c-.72.72-1.62 1.17-2.79 1.17z" id="P"/><path d="M75.23 14.77c.54.55 1.26.91 2.16.91.81 0 1.53-.27 2.16-.91.54-.63.9-1.35.9-2.25 0-.9-.27-1.62-.9-2.25a2.98 2.98 0 00-2.16-.9c-.81 0-1.53.27-2.16.9-.54.63-.91 1.35-.91 2.25 0 .9.28 1.62.91 2.25l.09-.09.09-.09c-.54-.54-.81-1.26-.81-2.07 0-.81.27-1.53.81-2.07.54-.54 1.17-.81 1.98-.81s1.44.27 1.98.81.81 1.26.81 2.07c0 .81-.27 1.53-.81 2.07-.54.55-1.17.82-1.98.82s-1.44-.27-1.98-.82l-.09.09-.09.09zm4.77.46c-.72.72-1.62 1.08-2.7 1.08s-1.98-.36-2.7-1.08c-.73-.73-1.09-1.63-1.09-2.71s.36-1.98 1.09-2.7c.72-.72 1.62-1.08 2.7-1.08s1.98.36 2.7 1.08c.72.72 1.08 1.62 1.08 2.7s-.36 1.98-1.08 2.71c.01 0 .04.03.09.09l.09.09c.72-.82 1.17-1.72 1.17-2.89 0-1.08-.36-2.07-1.17-2.88-.72-.81-1.71-1.17-2.88-1.17s-2.07.36-2.89 1.17c-.72.81-1.17 1.71-1.17 2.88 0 1.08.36 2.07 1.17 2.89.73.81 1.72 1.17 2.89 1.17 1.08 0 2.07-.36 2.88-1.17l-.09-.09c-.05-.06-.08-.09-.09-.09z" id="Q"/><path d="M82.61 8.74h1.17l3.61 5.85h.09l-.09-1.44V8.74h.99v7.48h-.99l-3.88-6.13v6.13h-.9V8.74z" id="R"/><path d="M82.7 16.22v-7.3h.99l3.61 5.76h.27V8.92h.72v7.21h-.81L83.6 10h-.27l.09 1.62v4.51h-.81v.09h.09-.09v.18h1.08v-4.78l-.09-1.53h-.09v.18-.18l-.09.09 3.88 6.22h1.17V8.65H87.3V14.59h.18v-.09h-.09v.09l.09-.09-3.7-5.85h-1.35v7.75h.18v-.18h.09z" id="S"/><path d="M90.18 8.2l.54-1.35h1.08l-.72 1.35h-.9zm-.09.63h.99v7.48h-.99V8.83z" id="T"/><path d="M90.99 8.11h-.63l.45-1.08h.72L90.9 8.2l.09.09V8.2v.09l.09.09.9-1.53h-1.35L90 8.47h1.08v-.09l-.09-.09v-.18zm-.81 8.2V8.92h.72v7.3h-.81v.09h.09-.09v.09h1.08V8.65H90v7.75h.09v-.09h.09z" id="U"/><path d="M91.98 8.74h1.08l2.08 6.12 2.16-6.12h1.08l-2.7 7.48H94.6l-2.62-7.48z" id="V"/><path d="M94.78 16.22l-2.62-7.3h.81l2.08 6.03h.18l2.16-6.03h.81l-2.61 7.21h-.99v.09h.18-.18v.18h1.17l2.79-7.75h-1.35l-2.16 6.12.09.09v-.18.18l.09-.09-2.08-6.12H91.8l2.71 7.75h.09v-.18h.18z" id="W"/><path d="M100.45 9.64v2.43h3.06v.9h-3.06v2.35h3.42v.9h-4.41V8.74h4.41v.9h-3.42z" id="X"/><path d="M103.87 9.55h-3.6v2.61h3.06v.63h-3.06v2.71h3.42v.63h-4.14V8.92h4.14v.72h.18v-.09.09h.09v-.99h-4.59v7.75h4.59v-1.17h-3.42v-2.17h3.06v-1.17h-3.06V9.82h3.42v-.18h-.09v-.09z" id="Y"/><path d="M105.32 8.74h.99v6.58h3.24v.9h-4.23V8.74z" id="Z"/><path d="M105.5 16.22v-7.3h.72v6.58h3.24v.63h-4.14v.09h.18-.18v.18h4.41v-1.17h-3.33V8.65h-1.17v7.75h.09v-.18h.18z" id="aa"/><path d="M113.33 8.74h1.18l3.6 5.85h.09l-.09-1.44V8.74h.99v7.48h-.99l-3.87-6.13v6.13h-.91V8.74z" id="ab"/><path d="M113.42 16.22v-7.3h1l3.6 5.76h.27V8.92h.63v7.21h-.81L114.33 10h-.28l.09 1.62v4.51h-.81v.09h.09-.09v.18h1.09v-4.78l-.09-1.53h-.09v.18-.18l-.1.09 3.88 6.22h1.17V8.65h-1.17V14.59h.18v-.09h-.09v.09l.09-.09-3.69-5.85h-1.36v7.75h.18v-.18h.09z" id="ac"/><path d="M124.24 15.5c.81 0 1.44-.27 2.07-.82.54-.54.81-1.26.81-2.16 0-.9-.27-1.62-.81-2.16s-1.26-.81-2.07-.81c-.82 0-1.45.27-2.08.81-.54.54-.81 1.26-.81 2.16 0 .9.27 1.62.81 2.16.54.55 1.26.82 2.08.82zm-.09.99c-1.09 0-1.99-.36-2.8-1.17-.72-.73-1.08-1.72-1.08-2.8 0-1.08.36-1.98 1.08-2.79.72-.72 1.62-1.17 2.8-1.17 1.08 0 1.98.36 2.79 1.17.72.72 1.08 1.71 1.08 2.79s-.36 1.98-1.08 2.8c-.72.72-1.62 1.17-2.79 1.17z" id="ad"/><path d="M122.07 14.77c.54.55 1.26.91 2.17.91.81 0 1.53-.27 2.16-.91.54-.63.9-1.35.9-2.25 0-.9-.27-1.62-.9-2.25a2.98 2.98 0 00-2.16-.9c-.82 0-1.54.27-2.17.9-.54.63-.9 1.35-.9 2.25 0 .9.27 1.62.9 2.25.01 0 .04-.03.09-.09.06-.05.09-.08.09-.09-.54-.54-.81-1.26-.81-2.07 0-.81.27-1.53.81-2.07.54-.54 1.17-.81 1.99-.81.81 0 1.44.27 1.98.81s.81 1.26.81 2.07c0 .81-.27 1.53-.81 2.07-.54.55-1.17.82-1.98.82-.82 0-1.45-.27-1.99-.82 0 .01-.03.04-.09.09-.05.06-.08.09-.09.09zm4.78.46c-.72.72-1.62 1.08-2.7 1.08-1.09 0-1.99-.36-2.71-1.08-.72-.73-1.08-1.63-1.08-2.71s.36-1.98 1.08-2.7c.72-.72 1.62-1.08 2.71-1.08 1.08 0 1.98.36 2.7 1.08.72.72 1.08 1.62 1.08 2.7s-.36 1.98-1.08 2.71l.09.09.09.09c.72-.82 1.17-1.72 1.17-2.89 0-1.08-.36-2.07-1.17-2.88-.72-.81-1.71-1.17-2.88-1.17-1.18 0-2.08.36-2.89 1.17-.72.81-1.17 1.71-1.17 2.88 0 1.08.36 2.07 1.17 2.89.72.81 1.71 1.17 2.89 1.17 1.17 0 2.07-.36 2.88-1.17a781471334210.094 781471334210.094 0 01-.18-.18z" id="ae"/><linearGradient id="e" gradientUnits="userSpaceOnUse" x1="30.23" y1="15.34" x2="10.88" y2="34.69"><stop offset="0%" stop-color="#00a0ff"/><stop offset="1.176%" stop-color="#00a1ff"/><stop offset="25.882%" stop-color="#00beff"/><stop offset="50.98%" stop-color="#00d2ff"/><stop offset="76.078%" stop-color="#00dfff"/><stop offset="100%" stop-color="#00e3ff"/></linearGradient><linearGradient id="g" gradientUnits="userSpaceOnUse" x1="41.36" y1="25.11" x2="28.64" y2="25.11"><stop offset="0%" stop-color="#ffe000"/><stop offset="41.176%" stop-color="#ffbd00"/><stop offset="78.039%" stop-color="orange"/><stop offset="100%" stop-color="#ff9c00"/></linearGradient><linearGradient id="i" gradientUnits="userSpaceOnUse" x1="32.09" y1="24.4" x2="14.77" y2="41.72"><stop offset="0%" stop-color="#ff3a44"/><stop offset="100%" stop-color="#c31162"/></linearGradient><linearGradient id="k" gradientUnits="userSpaceOnUse" x1="15.05" y1="8.49" x2="32.01" y2="25.45"><stop offset="0%" stop-color="#32a071"/><stop offset="7.059%" stop-color="#2da771"/><stop offset="47.843%" stop-color="#15cf74"/><stop offset="80%" stop-color="#06e775"/><stop offset="100%" stop-color="#00f076"/></linearGradient><linearGradient id="n" gradientUnits="userSpaceOnUse" x1="33.93" y1="30.33" x2="33.81" y2="30.33"><stop offset="0%" stop-color="#ccb300"/><stop offset="41.176%" stop-color="#cc9700"/><stop offset="78.039%" stop-color="#cc8400"/><stop offset="100%" stop-color="#cc7d00"/></linearGradient><linearGradient id="p" gradientUnits="userSpaceOnUse" x1="30.01" y1="29.13" x2="16.97" y2="42.17"><stop offset="0%" stop-color="#cc2e36"/><stop offset="100%" stop-color="#9c0e4e"/></linearGradient><linearGradient id="s" gradientUnits="userSpaceOnUse" x1="13.27" y1="39.17" x2="12.33" y2="40.11"><stop offset="0%" stop-color="#008de0"/><stop offset="1.176%" stop-color="#008de0"/><stop offset="25.882%" stop-color="#00a7e0"/><stop offset="50.98%" stop-color="#00b8e0"/><stop offset="76.078%" stop-color="#00c4e0"/><stop offset="100%" stop-color="#00c7e0"/></linearGradient><linearGradient id="u" gradientUnits="userSpaceOnUse" x1="13.14" y1="40.52" x2="13.05" y2="40.61"><stop offset="0%" stop-color="#e0333c"/><stop offset="100%" stop-color="#ab0f56"/></linearGradient><linearGradient id="x" gradientUnits="userSpaceOnUse" x1="41.36" y1="27.66" x2="33.81" y2="27.66"><stop offset="0%" stop-color="#e0c500"/><stop offset="41.176%" stop-color="#e0a600"/><stop offset="78.039%" stop-color="#e09100"/><stop offset="100%" stop-color="#e08900"/></linearGradient><linearGradient id="A" gradientUnits="userSpaceOnUse" x1="41.36" y1="22.37" x2="33.81" y2="22.37"><stop offset="0%" stop-color="#ffe840"/><stop offset="41.176%" stop-color="#ffce40"/><stop offset="78.039%" stop-color="#ffbc40"/><stop offset="100%" stop-color="#ffb540"/></linearGradient><linearGradient id="D" gradientUnits="userSpaceOnUse" x1="13.28" y1="9.87" x2="12.33" y2="10.82"><stop offset="0%" stop-color="#40b8ff"/><stop offset="1.176%" stop-color="#40b9ff"/><stop offset="25.882%" stop-color="#40ceff"/><stop offset="50.98%" stop-color="#40ddff"/><stop offset="76.078%" stop-color="#40e7ff"/><stop offset="100%" stop-color="#40eaff"/></linearGradient><linearGradient id="G" gradientUnits="userSpaceOnUse" x1="16.97" y1="7.87" x2="30.01" y2="20.91"><stop offset="0%" stop-color="#65b895"/><stop offset="7.059%" stop-color="#62bd95"/><stop offset="47.843%" stop-color="#50db97"/><stop offset="80%" stop-color="#44ed98"/><stop offset="100%" stop-color="#40f498"/></linearGradient></defs><use xlink:href="#a"/><use xlink:href="#a" fill-opacity="0" stroke="#000" stroke-opacity="0"/><use xlink:href="#b" fill="#a6a6a6"/><use xlink:href="#b" fill-opacity="0" stroke="#000" stroke-opacity="0"/><use xlink:href="#c" fill="#fff"/><use xlink:href="#c" fill-opacity="0" stroke="#000" stroke-opacity="0"/><use xlink:href="#d" fill="url(#e)"/><use xlink:href="#d" fill-opacity="0" stroke="#000" stroke-opacity="0"/><use xlink:href="#f" fill="url(#g)"/><use xlink:href="#f" fill-opacity="0" stroke="#000" stroke-opacity="0"/><use xlink:href="#h" fill="url(#i)"/><use xlink:href="#h" fill-opacity="0" stroke="#000" stroke-opacity="0"/><use xlink:href="#j" fill="url(#k)"/><use xlink:href="#j" fill-opacity="0" stroke="#000" stroke-opacity="0"/><use xlink:href="#l"/><use xlink:href="#l" fill-opacity="0" stroke="#000" stroke-opacity="0"/><use xlink:href="#m" fill="url(#n)"/><use xlink:href="#m" fill-opacity="0" stroke="#000" stroke-opacity="0"/><use xlink:href="#o" fill="url(#p)"/><use xlink:href="#o" fill-opacity="0" stroke="#000" stroke-opacity="0"/><use xlink:href="#q"/><use xlink:href="#q" fill-opacity="0" stroke="#000" stroke-opacity="0"/><use xlink:href="#r" fill="url(#s)"/><use xlink:href="#r" fill-opacity="0" stroke="#000" stroke-opacity="0"/><use xlink:href="#t" fill="url(#u)"/><use xlink:href="#t" fill-opacity="0" stroke="#000" stroke-opacity="0"/><use xlink:href="#v"/><use xlink:href="#v" fill-opacity="0" stroke="#000" stroke-opacity="0"/><use xlink:href="#w" fill="url(#x)"/><use xlink:href="#w" fill-opacity="0" stroke="#000" stroke-opacity="0"/><use xlink:href="#y" fill="#404040"/><use xlink:href="#y" fill-opacity="0" stroke="#000" stroke-opacity="0"/><use xlink:href="#z" fill="url(#A)"/><use xlink:href="#z" fill-opacity="0" stroke="#000" stroke-opacity="0"/><use xlink:href="#B" fill="#404040"/><use xlink:href="#B" fill-opacity="0" stroke="#000" stroke-opacity="0"/><use xlink:href="#C" fill="url(#D)"/><use xlink:href="#C" fill-opacity="0" stroke="#000" stroke-opacity="0"/><use xlink:href="#E" fill="#404040"/><use xlink:href="#E" fill-opacity="0" stroke="#000" stroke-opacity="0"/><use xlink:href="#F" fill="url(#G)"/><use xlink:href="#F" fill-opacity="0" stroke="#000" stroke-opacity="0"/><use xlink:href="#H" fill="#fff"/><use xlink:href="#H" fill-opacity="0" stroke="#000" stroke-opacity="0"/><use xlink:href="#I" fill="#fff"/><use xlink:href="#I" fill-opacity="0" stroke="#000" stroke-opacity="0"/><g><use xlink:href="#J" fill="#fff"/><use xlink:href="#J" fill-opacity="0" stroke="#000" stroke-opacity="0"/></g><g><use xlink:href="#K" fill="#fff"/><use xlink:href="#K" fill-opacity="0" stroke="#000" stroke-opacity="0"/></g><g><use xlink:href="#L" fill="#fff"/><use xlink:href="#L" fill-opacity="0" stroke="#000" stroke-opacity="0"/></g><g><use xlink:href="#M" fill="#fff"/><use xlink:href="#M" fill-opacity="0" stroke="#000" stroke-opacity="0"/></g><g><use xlink:href="#N" fill="#fff"/><use xlink:href="#N" fill-opacity="0" stroke="#000" stroke-opacity="0"/></g><g><use xlink:href="#O" fill="#fff"/><use xlink:href="#O" fill-opacity="0" stroke="#000" stroke-opacity="0"/></g><g><use xlink:href="#P" fill="#fff"/><use xlink:href="#P" fill-opacity="0" stroke="#000" stroke-opacity="0"/></g><g><use xlink:href="#Q" fill="#fff"/><use xlink:href="#Q" fill-opacity="0" stroke="#000" stroke-opacity="0"/></g><g><use xlink:href="#R" fill="#fff"/><use xlink:href="#R" fill-opacity="0" stroke="#000" stroke-opacity="0"/></g><g><use xlink:href="#S" fill="#fff"/><use xlink:href="#S" fill-opacity="0" stroke="#000" stroke-opacity="0"/></g><g><use xlink:href="#T" fill="#fff"/><use xlink:href="#T" fill-opacity="0" stroke="#000" stroke-opacity="0"/></g><g><use xlink:href="#U" fill="#fff"/><use xlink:href="#U" fill-opacity="0" stroke="#000" stroke-opacity="0"/></g><g><use xlink:href="#V" fill="#fff"/><use xlink:href="#V" fill-opacity="0" stroke="#000" stroke-opacity="0"/></g><g><use xlink:href="#W" fill="#fff"/><use xlink:href="#W" fill-opacity="0" stroke="#000" stroke-opacity="0"/></g><g><use xlink:href="#X" fill="#fff"/><use xlink:href="#X" fill-opacity="0" stroke="#000" stroke-opacity="0"/></g><g><use xlink:href="#Y" fill="#fff"/><use xlink:href="#Y" fill-opacity="0" stroke="#000" stroke-opacity="0"/></g><g><use xlink:href="#Z" fill="#fff"/><use xlink:href="#Z" fill-opacity="0" stroke="#000" stroke-opacity="0"/></g><g><use xlink:href="#aa" fill="#fff"/><use xlink:href="#aa" fill-opacity="0" stroke="#000" stroke-opacity="0"/></g><g><use xlink:href="#ab" fill="#fff"/><use xlink:href="#ab" fill-opacity="0" stroke="#000" stroke-opacity="0"/></g><g><use xlink:href="#ac" fill="#fff"/><use xlink:href="#ac" fill-opacity="0" stroke="#000" stroke-opacity="0"/></g><g><use xlink:href="#ad" fill="#fff"/><use xlink:href="#ad" fill-opacity="0" stroke="#000" stroke-opacity="0"/></g><g><use xlink:href="#ae" fill="#fff"/><use xlink:href="#ae" fill-opacity="0" stroke="#000" stroke-opacity="0"/></g></svg>